. 
 
http://www.torrenting.com          :     Once & For all ;)


               www . Torrenting . Com 

(((((((((((((= Enjoy No RAR releases =))))))))))))))))))))


...................................NFO:....................................

.[IMG]http://img708.imageshack.us/img708/8623/28351front1.jpg[/IMG]


[color=blue][size=5][b]A.Better.Life.2011.BDRip.XVID.AC3.HQ.Hive-CM8[/b][/size][/color]


[b]Thx Hive

CM8 Doing It Right The First Time :D


Source: Bluray

Encode:
took me couple tries, manually stripped out subs from the full subs file and just left the
foreign parts, needed retiming to get perfectly in sync and hardcoded them within.
enjoy

Video: 720x400 @bitrate 1600 2pass
Audio: English DTS to AC3 5.1 @448
Sample: Yes, included
Subs: Yes, english hardcoded for foreign parts only[/b]

 
http://www.imdb.com/title/tt1554091/


General
Complete name                    : A.Better.Life.2011.BDRip.XVID.AC3.HQ.Hive-CM8.avi
Format                           : AVI
Format/Info                      : Audio Video Interleave
File size                        : 1.40 GiB
Duration                         : 1h 37mn
Overall bit rate                 : 2 060 Kbps
Writing application              : Nandub v1.0rc2
Writing library                  : Nandub build 1853/release

Video
ID                               : 0
Format                           : MPEG-4 Visual
Format profile                   : Advanced Simple@L5
Format settings, BVOP            : 1
Format settings, QPel            : Yes
Format settings, GMC             : No warppoints
Format settings, Matrix          : Default (H.263)
Muxing mode                      : Packed bitstream
Codec ID                         : XVID
Codec ID/Hint                    : XviD
Duration                         : 1h 37mn
Bit rate                         : 1 602 Kbps
Width                            : 720 pixels
Height                           : 400 pixels
Display aspect ratio             : 16:9
Frame rate                       : 23.976 fps
Color space                      : YUV
Chroma subsampling               : 4:2:0
Bit depth                        : 8 bits
Scan type                        : Progressive
Compression mode                 : Lossy
Bits/(Pixel*Frame)               : 0.232
Stream size                      : 1.09 GiB (78%)
Writing library                  : XviD 1.2.1 (UTC 2008-12-04)

Audio
ID                               : 1
Format                           : AC-3
Format/Info                      : Audio Coding 3
Mode extension                   : CM (complete main)
Codec ID                         : 2000
Duration                         : 1h 37mn
Bit rate mode                    : Constant
Bit rate                         : 448 Kbps
Channel(s)                       : 6 channels
Channel positions                : Front: L C R, Side: L R, LFE
Sampling rate                    : 48.0 KHz
Bit depth                        : 16 bits
Compression mode                 : Lossy
Delay relative to video          : 24ms
Stream size                      : 312 MiB (22%)
Alignment                        : Split accross interleaves
Interleave, duration             : 42 ms (1.00 video frame)
Interleave, preload duration     : 500 ms


Plot:
A gardener in East L.A. struggles to keep his son away from gangs and immigration agents
while trying to give him the opportunities he never had.


Cast:
Demin Bichir            ...    Carlos Galindo
Eddie 'Piolin' Sotelo    ...    Himself
Joaqun Cosio            ...    Blasco Martinez
Jos Julin              ...    Luis Galindo
Nancy Lenehan            ...    Mrs. Donnely


[img]http://img683.imageshack.us/img683/9924/44050736.png[/img]
[img]http://img827.imageshack.us/img827/1383/bebeh.png[/img]
[img]http://img204.imageshack.us/img204/1881/bebebe.png[/img]
[img]http://img31.imageshack.us/img31/7696/bebebebe.png[/img]
[img]http://img405.imageshack.us/img405/909/bebebebebe.png[/img]




Greetz

ViSiON,SiC,SANTi,3LT0N,YanKeeS,MAGNET,THC,T0XiC,LKRG,FANTASIA-PLAY,FANTASIA-M,FLAWL3SS,
D2U,WBZ,BHRG,NOVA,Vik,Rapeseed,SAFC,goldadvance,MEMORY100,KaN1vE,Unevano,Pinnz,Wayne
Mr Hive,cedrict wink,and all P2P groups
Great Work Guys :D

LOOKING FOR ANYTHING YOU WANT TO LOOK AND SOUND BETTER

CM8@hushmail.com